<svg xmlns="http://www.w3.org/2000/svg" width="48.448" height="38.658" viewBox="0 0 48.448 38.658">
    <defs>
        <style>
            .cls-1{fill:#fff}
        </style>
    </defs>
    <g id="Home_Ic" transform="translate(-604.831 -470.866)">
        <path id="Path_257" d="M661.571 518.625c0 2.2.012 4.408 0 6.612-.012 1.611-.624 2.26-2.189 2.27-3.394.021-6.79-.027-10.184.029-.924.015-1.086-.311-1.073-1.14.047-3.024-.011-6.048.036-9.072.014-.928-.12-1.4-1.232-1.333a50.122 50.122 0 0 1-5.244 0c-1.048-.049-1.419.22-1.389 1.335.08 3.022 0 6.048.047 9.072.013.837-.167 1.148-1.08 1.133-3.394-.055-6.789-.008-10.184-.029-1.5-.009-2.173-.655-2.179-2.123-.02-4.51.01-9.021-.026-13.532a1.8 1.8 0 0 1 .776-1.537q7.859-6.436 15.687-12.909a1.15 1.15 0 0 1 1.8 0q7.809 6.5 15.691 12.9a1.917 1.917 0 0 1 .765 1.7c-.051 2.215-.022 4.42-.022 6.624z" class="cls-1" transform="translate(-15.204 -18.013)"/>
        <path id="Path_258" d="M638.662 477.807c0-1.87.041-3.449-.013-5.025-.043-1.271.364-1.918 1.767-1.832a35.538 35.538 0 0 0 4.32 0c1.324-.079 1.676.484 1.653 1.721-.063 3.383.028 6.769-.051 10.152a2.594 2.594 0 0 0 1.118 2.318c1.692 1.335 3.317 2.755 5.01 4.09.965.761 1.11 1.444.231 2.4-1.874 2.042-1.521 2.879-4.366.475-6-5.068-12.076-10.044-18.076-15.112-.9-.764-1.455-.85-2.407-.045-6.312 5.335-12.7 10.583-19.018 15.907-1.071.9-1.773.886-2.651-.224-1.85-2.34-1.878-2.3.442-4.223q9.711-8.069 19.4-16.162c2.2-1.841 3.817-1.85 6.015.009 2.112 1.787 4.24 3.554 6.626 5.551z" class="cls-1"/>
    </g>
</svg>
