<svg xmlns="http://www.w3.org/2000/svg" viewBox="0 0 36.99 36.99"><defs><style>.cls-1{fill:#fff;}.cls-2{fill:#d81f35;}</style></defs><g id="Layer_2" data-name="Layer 2"><g id="Layer_1-2" data-name="Layer 1"><path id="Path_52" data-name="Path 52" class="cls-1" d="M31.57,5.41A18.49,18.49,0,1,0,37,18.49,17.88,17.88,0,0,0,31.57,5.41Zm-8.17,18a7,7,0,1,1,2-4.92,6.7,6.7,0,0,1-2,4.92Z"/><path id="Path_53" data-name="Path 53" class="cls-2" d="M2.5,20.79h7a9.15,9.15,0,0,1,0-4.59H2.5A12.22,12.22,0,0,0,2.5,20.79Z"/><path id="Path_54" data-name="Path 54" class="cls-2" d="M7,7a15.56,15.56,0,0,0-4,6.73h7.38a10.34,10.34,0,0,1,3.37-3.37V2.93A16.33,16.33,0,0,0,7,7Z"/><path id="Path_55" data-name="Path 55" class="cls-2" d="M13.74,26.61a8.77,8.77,0,0,1-3.36-3.37H3A16,16,0,0,0,7,30a15.59,15.59,0,0,0,6.73,4.05Z"/><path id="Path_56" data-name="Path 56" class="cls-2" d="M16.2,9.45a9.34,9.34,0,0,1,4.58,0v-7a18.47,18.47,0,0,0-4.58,0Z"/><path id="Path_57" data-name="Path 57" class="cls-2" d="M20.78,27.54a9.34,9.34,0,0,1-4.58,0v7a18.47,18.47,0,0,0,4.58,0Z"/><path id="Path_58" data-name="Path 58" class="cls-2" d="M23.23,10.38a10.43,10.43,0,0,1,3.37,3.37H34A15.76,15.76,0,0,0,30,7a16.33,16.33,0,0,0-6.74-4.09Z"/><path id="Path_59" data-name="Path 59" class="cls-2" d="M30,30a16,16,0,0,0,4-6.77H26.6a8.87,8.87,0,0,1-3.37,3.37v7.45A15.56,15.56,0,0,0,30,30Z"/><path id="Path_60" data-name="Path 60" class="cls-2" d="M34.48,20.79a12.22,12.22,0,0,0,0-4.59H27.53a9.38,9.38,0,0,1,0,4.59Z"/></g></g></svg>