<svg xmlns="http://www.w3.org/2000/svg" width="65.309" height="120.866" viewBox="0 0 65.309 120.866">
    <defs>
        <style>
            .cls-1,.cls-4{fill:none;stroke:#fff}.cls-1{stroke-linecap:round;stroke-linejoin:round;stroke-width:3px}.cls-4{stroke-miterlimit:10;stroke-width:3.113px}
        </style>
    </defs>
    <g id="Logo" transform="translate(-.53 -.525)">
        <path id="Path_247" d="M64.767 94.919a32.645 32.645 0 0 0 3.732-.808l10.463-3.087.613-4.851" class="cls-1" transform="translate(-18.449 -24.751)"/>
        <path id="Path_248" d="M57.06 137.21l.468 21.7 8.749.644" class="cls-1" transform="translate(-16.182 -39.765)"/>
        <path id="Path_249" fill="none" stroke="#fff" stroke-linecap="round" stroke-miterlimit="10" stroke-width="3px" d="M6.684 17.109C2.005 21.965.934 30.961 3.173 38.053A28.438 28.438 0 0 0 15.859 53.71a30.484 30.484 0 0 0 29.773 1.108A26.077 26.077 0 0 0 57.7 42.636a30.38 30.38 0 0 0 1.335-20.087A29.764 29.764 0 0 0 48.717 6.843C41.619 1.4 32.386.42 24.8 4.7S11.59 18.54 10.887 28.961"/>
        <path id="Path_250" d="M39.189 11.509a18.876 18.876 0 0 0-14.144 16.507" class="cls-1" transform="translate(-6.765 -2.788)"/>
        <path id="Path_251" fill="none" stroke="#d00028" stroke-linecap="round" stroke-linejoin="round" stroke-width="3.113px" d="M47.754 58.849c5.864 6.945 12.985 2.257 16.735-4.546" transform="translate(-13.445 -15.377)"/>
        <path id="Path_252" d="M45.5 33.139a27.756 27.756 0 0 1 .059 6.83" class="cls-4" transform="translate(-12.782 -9.151)"/>
        <path id="Path_253" d="M65.8 26.529a27.681 27.681 0 0 1 .059 6.83" class="cls-4" transform="translate(-18.755 -7.206)"/>
        <path id="Path_254" fill="none" stroke="#fff" stroke-miterlimit="10" stroke-width="3px" d="M47.684 76.929a30.481 30.481 0 0 1-28.533-1.693l-.044-.028a5.221 5.221 0 0 0-1.121 3.22l-4.749 35.18a5.1 5.1 0 0 0 5.021 5.172h29.394a5.1 5.1 0 0 0 5.021-5.172l-4.75-35.18a5.263 5.263 0 0 0-.239-1.499z" transform="translate(-3.291 -21.526)"/>
        <path id="Path_255" d="M25.017 137.21l-.468 21.7-8.749.644" class="cls-1" transform="translate(-4.045 -39.765)"/>
        <path id="Path_256" d="M27.523 91.136s9.627 19.584 33.331 12l10.332-3.5.5-4.833" class="cls-1" transform="translate(-7.494 -26.211)"/>
    </g>
</svg>
